<svg width="36" height="36" viewBox="0 0 36 36" fill="none" xmlns="http://www.w3.org/2000/svg">
<path d="M0.503418 18.0035C0.505454 26.6124 6.76562 33.9425 15.2682 35.2917V23.061H10.8284V18.0035H15.2734V14.1535C15.0747 12.3292 15.6978 10.511 16.9738 9.19209C18.2497 7.87318 20.0463 7.19023 21.8762 7.32846C23.1896 7.34967 24.4997 7.46665 25.7962 7.67846V11.9817H23.5842C22.8226 11.882 22.057 12.1335 21.503 12.6654C20.949 13.1973 20.6665 13.952 20.7352 14.717V18.0035H25.5844L24.8092 23.0627H20.7352V35.2917C29.9305 33.8385 36.3786 25.4406 35.4081 16.1818C34.4375 6.9231 26.3882 0.0448314 17.0914 0.530018C7.79455 1.0152 0.504896 8.69399 0.503418 18.0035Z" fill="#F8FAFF"/>
</svg>
