<svg width="45" height="45" viewBox="0 0 45 45" fill="none" xmlns="http://www.w3.org/2000/svg">
<circle cx="22.4995" cy="22.5" r="21.75" fill="white" stroke="#5B5B5B" stroke-width="1.5"/>
<path d="M10 23.0782C10.0015 29.5128 14.6518 34.9916 20.9677 36V26.8584H17.6697V23.0782H20.9716V20.2006C20.824 18.8371 21.2869 17.4781 22.2347 16.4923C23.1825 15.5066 24.5171 14.9961 25.8763 15.0994C26.852 15.1153 27.8252 15.2027 28.7882 15.361V18.5774H27.1451C26.5794 18.5028 26.0107 18.6908 25.5992 19.0884C25.1876 19.4859 24.9778 20.0501 25.0288 20.6218V23.0782H28.631L28.0551 26.8597H25.0288V36C31.8594 34.9138 36.6492 28.637 35.9283 21.7167C35.2073 14.7964 29.228 9.65541 22.322 10.0181C15.4161 10.3807 10.0011 16.1201 10 23.0782Z" fill="#0D2256"/>
</svg>
