<svg width="45" height="45" viewBox="0 0 45 45" fill="none" xmlns="http://www.w3.org/2000/svg">
<path d="M22.499 41.2501C19.6641 41.258 16.865 40.6166 14.3165 39.375C13.3837 38.9213 12.4901 38.3914 11.6446 37.7906L11.3877 37.6031C9.06238 35.8868 7.16123 33.6604 5.83022 31.095C4.45347 28.4398 3.73942 25.4909 3.74887 22.5C3.74887 12.1447 12.1436 3.75 22.499 3.75C32.8543 3.75 41.2491 12.1447 41.2491 22.5C41.2584 25.4895 40.545 28.437 39.1696 31.0912C37.8404 33.6552 35.9419 35.8808 33.6196 37.5975C32.7435 38.2387 31.8138 38.8033 30.8408 39.285L30.6908 39.36C28.1407 40.6082 25.3382 41.2548 22.499 41.2501ZM22.499 31.875C19.6892 31.8695 17.1133 33.4388 15.8296 35.9381C20.0322 38.0197 24.9657 38.0197 29.1683 35.9381V35.9287C27.883 33.4321 25.307 31.8664 22.499 31.875ZM22.499 28.125C26.5604 28.1303 30.3054 30.319 32.3033 33.855L32.3315 33.8306L32.3577 33.8081L32.3258 33.8362L32.3071 33.8512C37.049 29.7546 38.7445 23.1419 36.5589 17.269C34.3734 11.396 28.7673 7.50059 22.5008 7.50059C16.2344 7.50059 10.6283 11.396 8.44275 17.269C6.25717 23.1419 7.95272 29.7546 12.6946 33.8512C14.6938 30.3169 18.4384 28.1299 22.499 28.125ZM22.499 26.25C18.3568 26.25 14.999 22.8921 14.999 18.75C14.999 14.6079 18.3568 11.25 22.499 11.25C26.6411 11.25 29.999 14.6079 29.999 18.75C29.999 20.7391 29.2088 22.6468 27.8023 24.0533C26.3957 25.4598 24.4881 26.25 22.499 26.25ZM22.499 15C20.4279 15 18.749 16.6789 18.749 18.75C18.749 20.8211 20.4279 22.5 22.499 22.5C24.57 22.5 26.249 20.8211 26.249 18.75C26.249 16.6789 24.57 15 22.499 15Z" fill="#356AD8"/>
</svg>
