<svg width="20" height="19" viewBox="0 0 20 19" fill="none" xmlns="http://www.w3.org/2000/svg">
<path d="M10.0005 18.0001C9.35551 17.4281 8.62651 16.8331 7.85551 16.2001H7.84551C5.13051 13.9801 2.05351 11.4681 0.694511 8.45815C0.248029 7.49987 0.0114151 6.45727 0.000499687 5.40015C-0.00248211 3.94963 0.579282 2.55913 1.61432 1.54292C2.64936 0.526697 4.0503 -0.0294578 5.50051 0.000147715C6.68114 0.00201252 7.83635 0.343229 8.82851 0.983148C9.26448 1.26612 9.65893 1.6084 10.0005 2.00015C10.344 1.60994 10.7386 1.26786 11.1735 0.983148C12.1652 0.343102 13.3202 0.00186627 14.5005 0.000147715C15.9507 -0.0294578 17.3517 0.526697 18.3867 1.54292C19.4217 2.55913 20.0035 3.94963 20.0005 5.40015C19.9903 6.45896 19.7537 7.50334 19.3065 8.46315C17.9475 11.4731 14.8715 13.9841 12.1565 16.2001L12.1465 16.2081C11.3745 16.8371 10.6465 17.4321 10.0015 18.0081L10.0005 18.0001ZM5.50051 2.00015C4.56902 1.98849 3.67058 2.34499 3.00051 2.99215C2.3549 3.62631 1.99407 4.49519 2.00043 5.40015C2.01184 6.17065 2.18634 6.93 2.51251 7.62815C3.15402 8.92685 4.01962 10.1022 5.06951 11.1001C6.06051 12.1001 7.20051 13.0681 8.18651 13.8821C8.45951 14.1071 8.73751 14.3341 9.01551 14.5611L9.19051 14.7041C9.45751 14.9221 9.73351 15.1481 10.0005 15.3701L10.0135 15.3581L10.0195 15.3531H10.0255L10.0345 15.3461H10.0395H10.0445L10.0625 15.3311L10.1035 15.2981L10.1105 15.2921L10.1215 15.2841H10.1275L10.1365 15.2761L10.8005 14.7311L10.9745 14.5881C11.2555 14.3591 11.5335 14.1321 11.8065 13.9071C12.7925 13.0931 13.9335 12.1261 14.9245 11.1211C15.9745 10.1237 16.8402 8.94866 17.4815 7.65015C17.8136 6.94595 17.9906 6.17865 18.0005 5.40015C18.0047 4.49799 17.644 3.63244 17.0005 3.00015C16.3317 2.35007 15.4331 1.99063 14.5005 2.00015C13.3624 1.99048 12.2744 2.46752 11.5105 3.31115L10.0005 5.05115L8.49051 3.31115C7.72657 2.46752 6.63859 1.99048 5.50051 2.00015Z" fill="#2E3A59"/>
</svg>
