<svg width="241" height="76" viewBox="0 0 241 76" fill="none" xmlns="http://www.w3.org/2000/svg">
<g filter="url(#filter0_d_2_1994)">
<rect x="10.0005" y="6" width="221" height="56" fill="white"/>
</g>
<path d="M28.9125 48L37.9365 14.4H62.2245L60.8805 19.68H42.4485L40.2885 27.408H48.0645C51.5205 27.408 54.2405 28.192 56.2245 29.76C58.2405 31.296 59.2485 33.392 59.2485 36.048C59.2485 39.92 57.7925 42.88 54.8805 44.928C51.9685 46.976 48.0805 48 43.2165 48H28.9125ZM36.1605 42.768H44.1285C46.9765 42.768 49.2005 42.24 50.8005 41.184C52.4325 40.096 53.2485 38.528 53.2485 36.48C53.2485 35.168 52.7205 34.128 51.6645 33.36C50.6405 32.56 49.2165 32.16 47.3925 32.16H38.9925L36.1605 42.768ZM75.195 48.576C71.675 48.576 68.875 47.584 66.795 45.6C64.715 43.584 63.675 40.88 63.675 37.488C63.675 34.96 64.283 32.528 65.499 30.192C66.747 27.856 68.539 25.936 70.875 24.432C73.211 22.896 75.787 22.128 78.603 22.128C81.739 22.128 84.203 23.056 85.995 24.912C87.819 26.768 88.731 29.12 88.731 31.968C88.731 33.632 88.363 35.456 87.627 37.44H69.195C69.227 39.392 69.803 40.944 70.923 42.096C72.075 43.248 73.691 43.824 75.771 43.824C77.947 43.824 80.107 43.008 82.251 41.376L85.035 45.072C82.187 47.408 78.907 48.576 75.195 48.576ZM69.819 33.456H82.971C83.131 33.04 83.211 32.464 83.211 31.728C83.211 30.32 82.779 29.168 81.915 28.272C81.083 27.344 79.835 26.88 78.171 26.88C76.251 26.88 74.539 27.488 73.035 28.704C71.563 29.92 70.491 31.504 69.819 33.456ZM91.0642 48.336C89.4322 48.336 88.2162 48.16 87.4162 47.808L89.0002 43.296C89.7042 43.456 90.2642 43.536 90.6802 43.536C91.7362 43.536 92.6002 43.248 93.2722 42.672C93.9762 42.096 94.8882 40.496 96.0082 37.872C97.1602 35.216 98.4722 31.232 99.9442 25.92L100.856 22.656H120.296L113.528 48H107.768L113.288 27.504H104.936L104.36 29.616C103.4 33.136 102.456 36.096 101.528 38.496C100.6 40.864 99.7682 42.704 99.0322 44.016C98.2962 45.296 97.4322 46.272 96.4402 46.944C95.4802 47.584 94.6322 47.968 93.8962 48.096C93.1922 48.256 92.2482 48.336 91.0642 48.336Z" fill="white"/>
<path d="M128.884 48L136.468 19.872H125.764L127.252 14.4H154.516L153.028 19.872H142.372L134.788 48H128.884ZM153.324 55.824C151.18 55.824 149.276 55.248 147.612 54.096L150.684 49.824C151.708 50.56 152.796 50.928 153.948 50.928C155.42 50.928 156.86 49.984 158.268 48.096L154.572 22.656H160.524L162.636 41.424L173.82 22.656H180.156L163.788 48.72C162.156 51.28 160.524 53.104 158.892 54.192C157.292 55.28 155.436 55.824 153.324 55.824ZM176.458 55.68L185.29 22.656H191.098L190.186 26.016C192.778 23.424 195.482 22.128 198.298 22.128C201.178 22.128 203.546 23.12 205.402 25.104C207.258 27.056 208.186 29.68 208.186 32.976C208.186 37.36 206.762 41.056 203.914 44.064C201.098 47.04 197.818 48.528 194.074 48.528C190.202 48.528 187.354 46.848 185.53 43.488L182.266 55.68H176.458ZM193.402 43.584C195.77 43.584 197.818 42.592 199.546 40.608C201.274 38.592 202.138 36.192 202.138 33.408C202.138 31.488 201.594 29.968 200.506 28.848C199.418 27.696 197.962 27.12 196.138 27.12C193.77 27.12 191.658 28.128 189.802 30.144C187.946 32.16 187.018 34.496 187.018 37.152C187.018 39.008 187.61 40.544 188.794 41.76C189.978 42.976 191.514 43.584 193.402 43.584Z" fill="#356AD8"/>
<path d="M28.9125 48L27.9467 47.7406L27.6085 49H28.9125V48ZM37.9365 14.4V13.4H37.1696L36.9707 14.1406L37.9365 14.4ZM62.2245 14.4L63.1936 14.6467L63.5109 13.4H62.2245V14.4ZM60.8805 19.68V20.68H61.6578L61.8496 19.9267L60.8805 19.68ZM42.4485 19.68V18.68H41.6897L41.4854 19.4108L42.4485 19.68ZM40.2885 27.408L39.3254 27.1388L38.9707 28.408H40.2885V27.408ZM56.2245 29.76L55.6044 30.5446L55.6114 30.5501L55.6184 30.5554L56.2245 29.76ZM54.8805 44.928L54.3052 44.11L54.8805 44.928ZM36.1605 42.768L35.1943 42.5101L34.8585 43.768H36.1605V42.768ZM50.8005 41.184L51.3513 42.0186L51.3552 42.0161L50.8005 41.184ZM51.6645 33.36L51.0488 34.148L51.0624 34.1586L51.0763 34.1687L51.6645 33.36ZM38.9925 32.16V31.16H38.2244L38.0263 31.9021L38.9925 32.16ZM29.8783 48.2594L38.9023 14.6594L36.9707 14.1406L27.9467 47.7406L29.8783 48.2594ZM37.9365 15.4H62.2245V13.4H37.9365V15.4ZM61.2554 14.1533L59.9114 19.4333L61.8496 19.9267L63.1936 14.6467L61.2554 14.1533ZM60.8805 18.68H42.4485V20.68H60.8805V18.68ZM41.4854 19.4108L39.3254 27.1388L41.2516 27.6772L43.4116 19.9492L41.4854 19.4108ZM40.2885 28.408H48.0645V26.408H40.2885V28.408ZM48.0645 28.408C51.3772 28.408 53.8519 29.1595 55.6044 30.5446L56.8445 28.9754C54.6291 27.2245 51.6638 26.408 48.0645 26.408V28.408ZM55.6184 30.5554C57.3726 31.892 58.2485 33.6866 58.2485 36.048H60.2485C60.2485 33.0974 59.1083 30.7 56.8305 28.9646L55.6184 30.5554ZM58.2485 36.048C58.2485 39.6279 56.9247 42.2677 54.3052 44.11L55.4558 45.746C58.6602 43.4923 60.2485 40.2121 60.2485 36.048H58.2485ZM54.3052 44.11C51.6133 46.0033 47.9483 47 43.2165 47V49C48.2127 49 52.3237 47.9487 55.4558 45.746L54.3052 44.11ZM43.2165 47H28.9125V49H43.2165V47ZM36.1605 43.768H44.1285V41.768H36.1605V43.768ZM44.1285 43.768C47.0829 43.768 49.5265 43.223 51.3513 42.0186L50.2496 40.3494C48.8745 41.257 46.8701 41.768 44.1285 41.768V43.768ZM51.3552 42.0161C53.2798 40.733 54.2485 38.8447 54.2485 36.48H52.2485C52.2485 38.2113 51.5852 39.459 50.2458 40.3519L51.3552 42.0161ZM54.2485 36.48C54.2485 34.8499 53.5689 33.5085 52.2527 32.5513L51.0763 34.1687C51.8721 34.7475 52.2485 35.4861 52.2485 36.48H54.2485ZM52.2801 32.572C51.0215 31.5887 49.3514 31.16 47.3925 31.16V33.16C49.0816 33.16 50.2594 33.5313 51.0488 34.148L52.2801 32.572ZM47.3925 31.16H38.9925V33.16H47.3925V31.16ZM38.0263 31.9021L35.1943 42.5101L37.1267 43.0259L39.9587 32.4179L38.0263 31.9021ZM66.795 45.6L66.099 46.3181L66.1048 46.3236L66.795 45.6ZM65.499 30.192L64.6169 29.7208L64.612 29.7303L65.499 30.192ZM70.875 24.432L71.4164 25.2728L71.4244 25.2676L70.875 24.432ZM85.995 24.912L85.2756 25.6066L85.2818 25.6129L85.995 24.912ZM87.627 37.44V38.44H88.3226L88.5646 37.7878L87.627 37.44ZM69.195 37.44V36.44H68.1785L68.1951 37.4564L69.195 37.44ZM70.923 42.096L70.2059 42.7931L70.2159 42.8031L70.923 42.096ZM82.251 41.376L83.0497 40.7743L82.445 39.9715L81.6453 40.5803L82.251 41.376ZM85.035 45.072L85.6692 45.8452L86.411 45.2367L85.8337 44.4703L85.035 45.072ZM69.819 33.456L68.8735 33.1305L68.4171 34.456H69.819V33.456ZM82.971 33.456V34.456H83.6578L83.9043 33.815L82.971 33.456ZM81.915 28.272L81.1704 28.9395L81.1825 28.9531L81.1951 28.9661L81.915 28.272ZM73.035 28.704L72.4062 27.9263L72.3981 27.933L73.035 28.704ZM75.195 47.576C71.8711 47.576 69.3393 46.645 67.4852 44.8764L66.1048 46.3236C68.4106 48.523 71.4789 49.576 75.195 49.576V47.576ZM67.491 44.8819C65.6386 43.0866 64.675 40.6595 64.675 37.488H62.675C62.675 41.1005 63.7914 44.0814 66.099 46.3181L67.491 44.8819ZM64.675 37.488C64.675 35.1276 65.241 32.8533 66.386 30.6537L64.612 29.7303C63.3249 32.2027 62.675 34.7924 62.675 37.488H64.675ZM66.381 30.6632C67.5448 28.4849 69.2162 26.6893 71.4163 25.2728L70.3336 23.5912C67.8618 25.1827 65.9492 27.2271 64.617 29.7208L66.381 30.6632ZM71.4244 25.2676C73.596 23.8397 75.9807 23.128 78.603 23.128V21.128C75.5932 21.128 72.826 21.9523 70.3256 23.5964L71.4244 25.2676ZM78.603 23.128C81.5304 23.128 83.7115 23.9867 85.2756 25.6066L86.7144 24.2174C84.6944 22.1253 81.9476 21.128 78.603 21.128V23.128ZM85.2818 25.6129C86.9038 27.2634 87.731 29.355 87.731 31.968H89.731C89.731 28.885 88.7342 26.2726 86.7082 24.2111L85.2818 25.6129ZM87.731 31.968C87.731 33.4859 87.3948 35.1906 86.6894 37.0922L88.5646 37.7878C89.3311 35.7214 89.731 33.7781 89.731 31.968H87.731ZM87.627 36.44H69.195V38.44H87.627V36.44ZM68.1951 37.4564C68.2304 39.6052 68.8719 41.4208 70.206 42.7931L71.64 41.3989C70.7341 40.4672 70.2236 39.1788 70.1949 37.4236L68.1951 37.4564ZM70.2159 42.8031C71.6036 44.1908 73.5027 44.824 75.771 44.824V42.824C73.8792 42.824 72.5464 42.3052 71.6301 41.3889L70.2159 42.8031ZM75.771 44.824C78.2136 44.824 80.5809 43.904 82.8567 42.1717L81.6453 40.5803C79.6331 42.112 77.6804 42.824 75.771 42.824V44.824ZM81.4522 41.9777L84.2362 45.6737L85.8337 44.4703L83.0497 40.7743L81.4522 41.9777ZM84.4008 44.2988C81.7331 46.4869 78.6777 47.576 75.195 47.576V49.576C79.1363 49.576 82.6409 48.3291 85.6692 45.8452L84.4008 44.2988ZM69.819 34.456H82.971V32.456H69.819V34.456ZM83.9043 33.815C84.1279 33.2338 84.211 32.5174 84.211 31.728H82.211C82.211 32.4106 82.1341 32.8462 82.0376 33.097L83.9043 33.815ZM84.211 31.728C84.211 30.0979 83.7026 28.6852 82.6348 27.5779L81.1951 28.9661C81.8554 29.6508 82.211 30.5421 82.211 31.728H84.211ZM82.6596 27.6045C81.58 26.4003 80.0191 25.88 78.171 25.88V27.88C79.6509 27.88 80.586 28.2877 81.1704 28.9395L82.6596 27.6045ZM78.171 25.88C76.0203 25.88 74.0868 26.5676 72.4063 27.9264L73.6637 29.4816C74.9912 28.4084 76.4817 27.88 78.171 27.88V25.88ZM72.3981 27.933C70.7727 29.2758 69.6003 31.0191 68.8735 33.1305L70.7645 33.7815C71.3817 31.9889 72.3533 30.5642 73.6719 29.475L72.3981 27.933ZM87.4162 47.808L86.4727 47.4768L86.166 48.3504L87.0135 48.7233L87.4162 47.808ZM89.0002 43.296L89.2219 42.3209L88.3521 42.1232L88.0567 42.9648L89.0002 43.296ZM93.2722 42.672L92.639 41.898L92.6301 41.9053L92.6214 41.9127L93.2722 42.672ZM96.0082 37.872L95.0908 37.4741L95.0885 37.4794L96.0082 37.872ZM99.9442 25.92L98.9811 25.6509L98.9806 25.653L99.9442 25.92ZM100.856 22.656V21.656H100.097L99.8931 22.3869L100.856 22.656ZM120.296 22.656L121.262 22.914L121.598 21.656H120.296V22.656ZM113.528 48V49H114.296L114.494 48.258L113.528 48ZM107.768 48L106.803 47.7399L106.463 49H107.768V48ZM113.288 27.504L114.254 27.7641L114.593 26.504H113.288V27.504ZM104.936 27.504V26.504H104.172L103.971 27.2409L104.936 27.504ZM104.36 29.616L105.325 29.8791L104.36 29.616ZM101.528 38.496L102.459 38.8609L102.461 38.8566L101.528 38.496ZM99.0322 44.016L99.8992 44.5145L99.9044 44.5052L99.0322 44.016ZM96.4402 46.944L96.995 47.7761L97.0011 47.7719L96.4402 46.944ZM93.8962 48.096L93.7249 47.1108L93.6996 47.1152L93.6746 47.1209L93.8962 48.096ZM91.0642 47.336C89.4714 47.336 88.4249 47.1593 87.819 46.8927L87.0135 48.7233C88.0076 49.1607 89.3931 49.336 91.0642 49.336V47.336ZM88.3598 48.1392L89.9438 43.6272L88.0567 42.9648L86.4727 47.4768L88.3598 48.1392ZM88.7786 44.2711C89.5106 44.4375 90.1546 44.536 90.6802 44.536V42.536C90.3738 42.536 89.8979 42.4745 89.2219 42.3209L88.7786 44.2711ZM90.6802 44.536C91.9266 44.536 93.0362 44.1914 93.923 43.4313L92.6214 41.9127C92.1643 42.3046 91.5458 42.536 90.6802 42.536V44.536ZM93.9055 43.446C94.4071 43.0355 94.8855 42.3553 95.353 41.5352C95.8352 40.6892 96.3601 39.5949 96.928 38.2646L95.0885 37.4794C94.5363 38.7731 94.0452 39.7908 93.6155 40.5448C93.1709 41.3247 92.8413 41.7325 92.639 41.898L93.9055 43.446ZM96.9257 38.2699C98.1058 35.549 99.4325 31.5115 100.908 26.187L98.9806 25.653C97.512 30.9525 96.2147 34.883 95.0908 37.4741L96.9257 38.2699ZM100.907 26.1891L101.819 22.9251L99.8931 22.3869L98.9811 25.6509L100.907 26.1891ZM100.856 23.656H120.296V21.656H100.856V23.656ZM119.33 22.398L112.562 47.742L114.494 48.258L121.262 22.914L119.33 22.398ZM113.528 47H107.768V49H113.528V47ZM108.734 48.2601L114.254 27.7641L112.323 27.2439L106.803 47.7399L108.734 48.2601ZM113.288 26.504H104.936V28.504H113.288V26.504ZM103.971 27.2409L103.395 29.3529L105.325 29.8791L105.901 27.7671L103.971 27.2409ZM103.395 29.3529C102.441 32.8523 101.507 35.7774 100.596 38.1354L102.461 38.8566C103.405 36.4146 104.359 33.4197 105.325 29.8791L103.395 29.3529ZM100.597 38.1311C99.6762 40.4812 98.8635 42.2728 98.1601 43.5267L99.9044 44.5052C100.673 43.1352 101.524 41.2468 102.459 38.8609L100.597 38.1311ZM98.1653 43.5175C97.4878 44.6959 96.7199 45.5467 95.8794 46.1161L97.0011 47.7719C98.1446 46.9973 99.1047 45.8961 99.8991 44.5145L98.1653 43.5175ZM95.8855 46.1119C94.9847 46.7125 94.2698 47.016 93.7249 47.1108L94.0676 49.0812C94.9947 48.92 95.9758 48.4555 96.9949 47.7761L95.8855 46.1119ZM93.6746 47.1209C93.0746 47.2572 92.2146 47.336 91.0642 47.336V49.336C92.2819 49.336 93.3099 49.2548 94.1179 49.0711L93.6746 47.1209ZM128.884 48L127.918 47.7397L127.578 49H128.884V48ZM136.468 19.872L137.433 20.1323L137.773 18.872H136.468V19.872ZM125.764 19.872L124.799 19.6096L124.455 20.872H125.764V19.872ZM127.252 14.4V13.4H126.487L126.287 14.1376L127.252 14.4ZM154.516 14.4L155.481 14.6624L155.824 13.4H154.516V14.4ZM153.028 19.872V20.872H153.792L153.993 20.1344L153.028 19.872ZM142.372 19.872V18.872H141.606L141.406 19.6117L142.372 19.872ZM134.788 48V49H135.554L135.753 48.2603L134.788 48ZM129.849 48.2603L137.433 20.1323L135.502 19.6117L127.918 47.7397L129.849 48.2603ZM136.468 18.872H125.764V20.872H136.468V18.872ZM126.729 20.1344L128.217 14.6624L126.287 14.1376L124.799 19.6096L126.729 20.1344ZM127.252 15.4H154.516V13.4H127.252V15.4ZM153.551 14.1376L152.063 19.6096L153.993 20.1344L155.481 14.6624L153.551 14.1376ZM153.028 18.872H142.372V20.872H153.028V18.872ZM141.406 19.6117L133.822 47.7397L135.753 48.2603L143.337 20.1323L141.406 19.6117ZM134.788 47H128.884V49H134.788V47ZM147.612 54.096L146.8 53.5122L146.205 54.3387L147.042 54.9182L147.612 54.096ZM150.684 49.824L151.267 49.012L150.455 48.4285L149.872 49.2402L150.684 49.824ZM158.268 48.096L159.069 48.6938L159.317 48.3619L159.257 47.9522L158.268 48.096ZM154.572 22.656V21.656H153.416L153.582 22.7998L154.572 22.656ZM160.524 22.656L161.517 22.5442L161.417 21.656H160.524V22.656ZM162.636 41.424L161.642 41.5358L161.974 44.4876L163.495 41.9359L162.636 41.424ZM173.82 22.656V21.656H173.251L172.961 22.1441L173.82 22.656ZM180.156 22.656L181.002 23.1878L181.964 21.656H180.156V22.656ZM163.788 48.72L164.631 49.2576L164.634 49.2518L163.788 48.72ZM158.892 54.192L158.337 53.3599L158.329 53.3651L158.892 54.192ZM153.324 54.824C151.37 54.824 149.667 54.303 148.181 53.2738L147.042 54.9182C148.884 56.193 150.989 56.824 153.324 56.824V54.824ZM148.423 54.6798L151.495 50.4078L149.872 49.2402L146.8 53.5122L148.423 54.6798ZM150.1 50.636C151.277 51.4821 152.566 51.928 153.948 51.928V49.928C153.025 49.928 152.138 49.6379 151.267 49.012L150.1 50.636ZM153.948 51.928C155.887 51.928 157.587 50.6816 159.069 48.6938L157.466 47.4982C156.132 49.2864 154.952 49.928 153.948 49.928V51.928ZM159.257 47.9522L155.561 22.5122L153.582 22.7998L157.278 48.2398L159.257 47.9522ZM154.572 23.656H160.524V21.656H154.572V23.656ZM159.53 22.7678L161.642 41.5358L163.629 41.3122L161.517 22.5442L159.53 22.7678ZM163.495 41.9359L174.679 23.1679L172.961 22.1441L161.777 40.9121L163.495 41.9359ZM173.82 23.656H180.156V21.656H173.82V23.656ZM179.309 22.1242L162.941 48.1882L164.634 49.2518L181.002 23.1878L179.309 22.1242ZM162.944 48.1824C161.35 50.6829 159.808 52.3795 158.337 53.36L159.446 55.0241C161.24 53.8285 162.961 51.8771 164.631 49.2576L162.944 48.1824ZM158.329 53.3651C156.91 54.33 155.254 54.824 153.324 54.824V56.824C155.617 56.824 157.673 56.23 159.454 55.0189L158.329 53.3651ZM176.458 55.68L175.492 55.4216L175.155 56.68H176.458V55.68ZM185.29 22.656V21.656H184.522L184.324 22.3976L185.29 22.656ZM191.098 22.656L192.063 22.918L192.405 21.656H191.098V22.656ZM190.186 26.016L189.221 25.754L188.237 29.3793L190.893 26.7231L190.186 26.016ZM205.402 25.104L204.671 25.7872L204.677 25.7931L205.402 25.104ZM203.914 44.064L203.188 43.3765L203.187 43.3767L203.914 44.064ZM185.53 43.488L186.409 43.0109L185.212 40.8071L184.564 43.2294L185.53 43.488ZM182.266 55.68V56.68H183.033L183.232 55.9386L182.266 55.68ZM199.546 40.608L200.3 41.2648L200.305 41.2588L199.546 40.608ZM200.506 28.848L199.779 29.5347L199.788 29.5448L200.506 28.848ZM189.802 30.144L190.537 30.8213L189.802 30.144ZM177.424 55.9384L186.256 22.9144L184.324 22.3976L175.492 55.4216L177.424 55.9384ZM185.29 23.656H191.098V21.656H185.29V23.656ZM190.133 22.394L189.221 25.754L191.151 26.2779L192.063 22.918L190.133 22.394ZM190.893 26.7231C193.356 24.2597 195.82 23.128 198.298 23.128V21.128C195.143 21.128 192.199 22.5883 189.479 25.3089L190.893 26.7231ZM198.298 23.128C200.92 23.128 203.017 24.0185 204.671 25.7872L206.132 24.4208C204.075 22.2215 201.436 21.128 198.298 21.128V23.128ZM204.677 25.7931C206.319 27.5195 207.186 29.8759 207.186 32.976H209.186C209.186 29.4841 208.197 26.5925 206.126 24.4149L204.677 25.7931ZM207.186 32.976C207.186 37.1207 205.849 40.5658 203.188 43.3765L204.64 44.7515C207.675 41.5462 209.186 37.5993 209.186 32.976H207.186ZM203.187 43.3767C200.54 46.174 197.515 47.528 194.074 47.528V49.528C198.12 49.528 201.655 47.906 204.64 44.7513L203.187 43.3767ZM194.074 47.528C192.286 47.528 190.787 47.1414 189.542 46.4067C188.297 45.6724 187.248 44.5569 186.409 43.0109L184.651 43.9651C185.636 45.7791 186.922 47.1836 188.526 48.1293C190.128 49.0746 191.99 49.528 194.074 49.528V47.528ZM184.564 43.2294L181.3 55.4214L183.232 55.9386L186.496 43.7466L184.564 43.2294ZM182.266 54.68H176.458V56.68H182.266V54.68ZM193.402 44.584C196.093 44.584 198.406 43.4397 200.3 41.2648L198.792 39.9512C197.23 41.7443 195.446 42.584 193.402 42.584V44.584ZM200.305 41.2588C202.196 39.0522 203.138 36.4181 203.138 33.408H201.138C201.138 35.9659 200.351 38.1318 198.786 39.9572L200.305 41.2588ZM203.138 33.408C203.138 31.291 202.532 29.4987 201.223 28.1512L199.788 29.5448C200.655 30.4373 201.138 31.685 201.138 33.408H203.138ZM201.233 28.1614C199.927 26.7785 198.191 26.12 196.138 26.12V28.12C197.732 28.12 198.909 28.6135 199.779 29.5346L201.233 28.1614ZM196.138 26.12C193.445 26.12 191.079 27.2805 189.066 29.4667L190.537 30.8213C192.237 28.9755 194.094 28.12 196.138 28.12V26.12ZM189.066 29.4667C187.046 31.6608 186.018 34.2364 186.018 37.152H188.018C188.018 34.7556 188.845 32.6592 190.537 30.8213L189.066 29.4667ZM186.018 37.152C186.018 39.2419 186.694 41.0366 188.077 42.4576L189.51 41.0624C188.526 40.0514 188.018 38.7741 188.018 37.152H186.018ZM188.077 42.4576C189.472 43.8896 191.277 44.584 193.402 44.584V42.584C191.75 42.584 190.484 42.0624 189.51 41.0624L188.077 42.4576Z" fill="black"/>
<defs>
<filter id="filter0_d_2_1994" x="0.000488281" y="0" width="241" height="76" filterUnits="userSpaceOnUse" color-interpolation-filters="sRGB">
<feFlood flood-opacity="0" result="BackgroundImageFix"/>
<feColorMatrix in="SourceAlpha" type="matrix" values="0 0 0 0 0 0 0 0 0 0 0 0 0 0 0 0 0 0 127 0" result="hardAlpha"/>
<feMorphology radius="2" operator="dilate" in="SourceAlpha" result="effect1_dropShadow_2_1994"/>
<feOffset dy="4"/>
<feGaussianBlur stdDeviation="4"/>
<feComposite in2="hardAlpha" operator="out"/>
<feColorMatrix type="matrix" values="0 0 0 0 0 0 0 0 0 0 0 0 0 0 0 0 0 0 0.25 0"/>
<feBlend mode="normal" in2="BackgroundImageFix" result="effect1_dropShadow_2_1994"/>
<feBlend mode="normal" in="SourceGraphic" in2="effect1_dropShadow_2_1994" result="shape"/>
</filter>
</defs>
</svg>
