<svg width="45" height="45" viewBox="0 0 45 45" fill="none" xmlns="http://www.w3.org/2000/svg">
<circle cx="22.5" cy="22.5" r="21.75" fill="white" stroke="#5B5B5B" stroke-width="1.5"/>
<path d="M31.173 16.1536C32.2015 15.5228 32.971 14.5295 33.338 13.3592C32.3715 13.9475 31.3141 14.3619 30.2115 14.5846C28.6828 12.9255 26.2607 12.5218 24.2986 13.599C22.3365 14.6761 21.3202 16.9675 21.8176 19.1927C17.8588 18.9889 14.1705 17.0704 11.6705 13.9148C10.3658 16.2235 11.0325 19.1748 13.1942 20.6594C12.4125 20.6336 11.6482 20.4165 10.9649 20.0261C10.9649 20.0473 10.9649 20.0685 10.9649 20.0897C10.9654 22.4946 12.6175 24.5661 14.9152 25.0427C14.1901 25.2451 13.4296 25.2749 12.6917 25.1298C13.3378 27.1865 15.1854 28.5954 17.2913 28.6375C15.5472 30.0419 13.3932 30.8035 11.176 30.7997C10.783 30.8003 10.3903 30.7771 10 30.7303C12.2515 32.2146 14.872 33.0024 17.5483 32.9997C21.2717 33.0259 24.85 31.52 27.4828 28.8188C30.1156 26.1175 31.5832 22.4464 31.5573 18.6266C31.5573 18.4076 31.5523 18.1899 31.5424 17.9733C32.5067 17.2584 33.3389 16.3727 34 15.3579C33.1017 15.7664 32.1487 16.0346 31.173 16.1536Z" fill="#1488F2"/>
</svg>
