<svg width="34" height="28" viewBox="0 0 34 28" fill="none" xmlns="http://www.w3.org/2000/svg">
<path d="M29.6588 4.58923C31.0781 3.74071 32.1401 2.40461 32.6465 0.830401C31.3128 1.62175 29.8536 2.17921 28.3319 2.47865C26.2223 0.246986 22.8798 -0.2961 20.1721 1.15286C17.4644 2.60181 16.0619 5.68409 16.7483 8.6774C11.2852 8.40313 6.1953 5.82252 2.74527 1.57773C0.944771 4.68332 1.86487 8.65331 4.84794 10.6502C3.76923 10.6156 2.71444 10.3235 1.77152 9.7984C1.77152 9.8269 1.77152 9.8554 1.77152 9.8839C1.77215 13.1189 4.05211 15.9054 7.22294 16.5466C6.22238 16.8188 5.17285 16.8589 4.15444 16.6637C5.04617 19.4302 7.5959 21.3255 10.502 21.3821C8.09509 23.2712 5.12261 24.2957 2.06286 24.2907C1.52052 24.2914 0.978608 24.2602 0.439941 24.1972C3.54706 26.1939 7.16336 27.2536 10.8567 27.2499C15.995 27.2852 20.9331 25.2595 24.5663 21.6259C28.1996 17.9924 30.2249 13.0541 30.1892 7.91582C30.1892 7.62132 30.1823 7.3284 30.1686 7.03707C31.4993 6.07535 32.6478 4.88397 33.5601 3.5189C32.3204 4.06842 31.0054 4.4292 29.6588 4.58923Z" fill="#FBFCFF"/>
</svg>
