<svg width="30" height="25" viewBox="0 0 30 25" fill="none" xmlns="http://www.w3.org/2000/svg">
<path d="M26.4657 3.84243C27.7514 3.07384 28.7133 1.86362 29.172 0.437709C27.9639 1.15451 26.6422 1.65945 25.2639 1.93068C23.353 -0.0907443 20.3253 -0.582667 17.8727 0.729786C15.4201 2.04224 14.1498 4.83415 14.7715 7.54546C9.82303 7.29703 5.21268 4.95953 2.08767 1.11464C0.456783 3.92765 1.2902 7.52364 3.99225 9.33244C3.01516 9.30103 2.05974 9.03648 1.20565 8.56086C1.20565 8.58667 1.20565 8.61249 1.20565 8.6383C1.20622 11.5685 3.27139 14.0926 6.1435 14.6733C5.2372 14.9199 4.28655 14.9562 3.36408 14.7794C4.1718 17.2853 6.48132 19.002 9.11367 19.0533C6.93349 20.7644 4.24104 21.6924 1.46954 21.6878C0.978292 21.6885 0.487432 21.6603 -0.000488281 21.6032C2.81392 23.4117 6.08953 24.3717 9.43493 24.3683C14.0892 24.4003 18.562 22.5654 21.853 19.2741C25.144 15.9829 26.9785 11.5099 26.9462 6.85563C26.9462 6.58887 26.9399 6.32355 26.9275 6.05966C28.1329 5.18855 29.1732 4.1094 29.9995 2.87293C28.8766 3.37068 27.6854 3.69747 26.4657 3.84243Z" fill="#1488F2"/>
</svg>
