<svg width="45" height="45" viewBox="0 0 45 45" fill="none" xmlns="http://www.w3.org/2000/svg">
<circle cx="22.4995" cy="22.5" r="21.75" fill="white" stroke="#5B5B5B" stroke-width="1.5"/>
<path d="M22.5067 30.9728H22.4826C22.4076 30.9728 14.9124 30.9583 13.0213 30.4448C11.9814 30.1646 11.1694 29.3521 10.8898 28.312C10.5498 26.3936 10.3855 24.4482 10.3992 22.5C10.3904 20.5485 10.5591 18.6003 10.9031 16.6794C11.1903 15.6385 11.9989 14.8221 13.037 14.525C14.8761 14.0416 22.1648 14.0416 22.4741 14.0416H22.4995C22.5756 14.0416 30.0902 14.0561 31.9619 14.5697C32.9996 14.8512 33.8101 15.6621 34.091 16.7C34.4419 18.6255 34.6066 20.5803 34.5828 22.5374C34.5913 24.4865 34.4222 26.4323 34.0777 28.3507C33.7946 29.3894 32.982 30.2002 31.9426 30.481C30.1059 30.968 22.8161 30.9728 22.5067 30.9728ZM20.0901 18.881L20.084 26.131L26.3819 22.506L20.0901 18.881Z" fill="#D50000"/>
</svg>
