<svg width="62" height="63" viewBox="0 0 62 63" fill="none" xmlns="http://www.w3.org/2000/svg">
<g filter="url(#filter0_d_2_737)">
<path d="M31.0043 4.75433C17.4335 4.75432 5.97103 16.2168 5.97104 29.7876C5.97105 43.3584 17.4335 54.8208 31.0043 54.8208C44.5751 54.8208 56.0376 43.3584 56.0376 29.7876C56.0375 16.2168 44.5751 4.75434 31.0043 4.75433ZM31.0043 49.2579C20.4514 49.2579 11.534 40.3405 11.534 29.7876C11.534 19.2347 20.4514 10.3173 31.0043 10.3173C41.5572 10.3173 50.4746 19.2347 50.4746 29.7876C50.4746 40.3405 41.5572 49.2579 31.0043 49.2579Z" fill="#356AD8"/>
<path d="M33.7858 27.0061L33.7858 15.8802L28.2228 15.8802L28.2228 32.5691L44.9117 32.5691L44.9117 27.0061L33.7858 27.0061Z" fill="#356AD8"/>
<path d="M45.7012 3.93925L49.6292 3.55071e-05L58 8.34696L54.0721 12.2862L45.7012 3.93925Z" fill="#356AD8"/>
<path d="M16.2567 3.93937L7.93923 12.2807L4.00001 8.3527L12.3175 0.0114008L16.2567 3.93937Z" fill="#356AD8"/>
</g>
<defs>
<filter id="filter0_d_2_737" x="0" y="0" width="62" height="62.8208" filterUnits="userSpaceOnUse" color-interpolation-filters="sRGB">
<feFlood flood-opacity="0" result="BackgroundImageFix"/>
<feColorMatrix in="SourceAlpha" type="matrix" values="0 0 0 0 0 0 0 0 0 0 0 0 0 0 0 0 0 0 127 0" result="hardAlpha"/>
<feOffset dy="4"/>
<feGaussianBlur stdDeviation="2"/>
<feComposite in2="hardAlpha" operator="out"/>
<feColorMatrix type="matrix" values="0 0 0 0 0 0 0 0 0 0 0 0 0 0 0 0 0 0 0.25 0"/>
<feBlend mode="normal" in2="BackgroundImageFix" result="effect1_dropShadow_2_737"/>
<feBlend mode="normal" in="SourceGraphic" in2="effect1_dropShadow_2_737" result="shape"/>
</filter>
</defs>
</svg>
