<svg width="64" height="64" viewBox="0 0 64 64" fill="none" xmlns="http://www.w3.org/2000/svg">
<path d="M32 56H31.864C31.4668 55.9703 31.0889 55.8163 30.784 55.56C30.7005 55.489 30.6237 55.4105 30.5547 55.3253L5.78133 25.7947C5.58816 25.5739 5.45177 25.3094 5.384 25.024C5.384 24.9893 5.368 24.9547 5.36 24.92C5.28445 24.4733 5.37964 24.0145 5.62666 23.6347L5.67733 23.56L15.3573 9.86667C15.392 9.81333 15.4267 9.76533 15.4667 9.72267C15.7498 9.38618 16.1427 9.16047 16.576 9.08533C16.6502 9.07403 16.725 9.06779 16.8 9.06667L31.8667 8H32H32.1307L47.2 9.06667C47.2833 9.07139 47.3662 9.08208 47.448 9.09867C47.9235 9.18718 48.346 9.45677 48.6267 9.85067L58.3253 23.568C58.3454 23.5946 58.3641 23.6222 58.3813 23.6507C58.6033 23.9906 58.7039 24.3957 58.6667 24.8C58.6554 24.9036 58.6358 25.0062 58.608 25.1067C58.5351 25.3623 58.4057 25.5984 58.2293 25.7973L33.448 55.3227C33.4068 55.3744 33.3622 55.4234 33.3147 55.4693C33.159 55.6206 32.9786 55.7441 32.7813 55.8347C32.6195 55.9077 32.4479 55.9571 32.272 55.9813C32.1819 55.9938 32.091 56 32 56ZM21.1893 26.4293L32 49.768L42.8107 26.4293H21.1893ZM46.896 26.4293L39.5307 42.3307L52.864 26.4293H46.896ZM11.128 26.4293L24.4613 42.3307L17.104 26.4293H11.128ZM48.448 15.984L47.7547 22.7867H53.2533L48.448 15.984ZM32 12.984L23.6587 22.7867H40.3413L32 12.984ZM15.552 15.984L10.7467 22.7867H16.2453L15.552 15.984ZM35.9387 11.9227L44.136 21.5573L45.0667 12.5627L35.9387 11.9227ZM28.056 11.9227L18.9333 12.5627L19.8533 21.5573L28.056 11.9227Z" fill="#356AD8"/>
</svg>
