<svg width="46" height="46" viewBox="0 0 46 46" fill="none" xmlns="http://www.w3.org/2000/svg">
<g clip-path="url(#clip0_2_783)">
<path d="M30.6667 20.4443C33.8484 20.4443 36.3975 17.876 36.3975 14.6943C36.3975 11.5127 33.8484 8.94434 30.6667 8.94434C27.485 8.94434 24.9167 11.5127 24.9167 14.6943C24.9167 17.876 27.485 20.4443 30.6667 20.4443ZM15.3334 20.4443C18.515 20.4443 21.0642 17.876 21.0642 14.6943C21.0642 11.5127 18.515 8.94434 15.3334 8.94434C12.1517 8.94434 9.58335 11.5127 9.58335 14.6943C9.58335 17.876 12.1517 20.4443 15.3334 20.4443ZM15.3334 24.2777C10.8675 24.2777 1.91669 26.5202 1.91669 30.986V35.7777H28.75V30.986C28.75 26.5202 19.7992 24.2777 15.3334 24.2777ZM30.6667 24.2777C30.1109 24.2777 29.4784 24.316 28.8075 24.3735C31.0309 25.9835 32.5834 28.1493 32.5834 30.986V35.7777H44.0834V30.986C44.0834 26.5202 35.1325 24.2777 30.6667 24.2777Z" fill="#356AD8"/>
</g>
<defs>
<clipPath id="clip0_2_783">
<rect width="46" height="46" fill="white"/>
</clipPath>
</defs>
</svg>
