<svg width="36" height="35" viewBox="0 0 36 35" fill="none" xmlns="http://www.w3.org/2000/svg">
<path d="M0.000488281 17.4976C0.00252448 26.1065 6.26269 33.4366 14.7652 34.7859V22.5551H10.3255V17.4976H14.7705V13.6476C14.5718 11.8233 15.1949 10.0051 16.4709 8.68623C17.7468 7.36732 19.5434 6.68437 21.3732 6.8226C22.6867 6.84381 23.9968 6.96079 25.2932 7.1726V11.4758H23.0812C22.3197 11.3761 21.5541 11.6276 21.0001 12.1595C20.4461 12.6914 20.1636 13.4461 20.2322 14.2111V17.4976H25.0815L24.3062 22.5568H20.2322V34.7859C29.4276 33.3326 35.8756 24.9347 34.9051 15.676C33.9346 6.41724 25.8852 -0.461028 16.5884 0.0241583C7.29162 0.509345 0.00196612 8.18814 0.000488281 17.4976Z" fill="#5B5B5B"/>
</svg>
