<svg width="34" height="27" viewBox="0 0 34 27" fill="none" xmlns="http://www.w3.org/2000/svg">
<path d="M29.2188 4.24207C30.6382 3.39354 31.7002 2.05744 32.2066 0.483233C30.8729 1.27459 29.4136 1.83204 27.892 2.13148C25.7823 -0.100182 22.4398 -0.643268 19.7321 0.805688C17.0245 2.25464 15.622 5.33693 16.3083 8.33023C10.8452 8.05596 5.75536 5.47535 2.30533 1.23057C0.50483 4.33615 1.42492 8.30614 4.408 10.3031C3.32929 10.2684 2.2745 9.97633 1.33158 9.45123C1.33158 9.47973 1.33158 9.50823 1.33158 9.53673C1.33221 12.7717 3.61217 15.5583 6.783 16.1994C5.78243 16.4716 4.73291 16.5117 3.7145 16.3166C4.60623 19.0831 7.15596 20.9784 10.0621 21.0349C7.65515 22.924 4.68267 23.9485 1.62292 23.9435C1.08058 23.9443 0.538666 23.9131 0 23.8501C3.10712 25.8467 6.72342 26.9065 10.4167 26.9027C15.5551 26.938 20.4931 24.9123 24.1264 21.2788C27.7597 17.6452 29.785 12.707 29.7492 7.56865C29.7492 7.27415 29.7424 6.98123 29.7287 6.6899C31.0594 5.72819 32.2079 4.5368 33.1202 3.17173C31.8804 3.72125 30.5654 4.08203 29.2188 4.24207Z" fill="#5B5B5B"/>
</svg>
