<svg width="32" height="24" viewBox="0 0 32 24" fill="none" xmlns="http://www.w3.org/2000/svg">
<path d="M16.0095 23.1024H15.9778C15.8796 23.1024 6.05822 23.0834 3.5803 22.4105C2.21772 22.0434 1.1536 20.9787 0.7873 19.6159C0.341715 17.1022 0.126544 14.553 0.144466 12.0001C0.132954 9.44302 0.353947 6.89021 0.804716 4.37316C1.18109 3.00914 2.24053 1.9395 3.60088 1.55008C6.01072 0.916748 15.5614 0.916748 15.9667 0.916748H16C16.0997 0.916748 25.9465 0.935748 28.399 1.60866C29.7588 1.9776 30.8207 3.04015 31.1889 4.40008C31.6487 6.92319 31.8645 9.4847 31.8333 12.0492C31.8444 14.6031 31.6229 17.1528 31.1715 19.6666C30.8004 21.0277 29.7356 22.0901 28.3737 22.458C25.9671 23.0961 16.4148 23.1024 16.0095 23.1024ZM12.8428 7.258L12.8349 16.758L21.0872 12.008L12.8428 7.258Z" fill="#5B5B5B"/>
</svg>
